<mxfile host="app.diagrams.net" agent="Mozilla/5.0 (Macintosh; Intel Mac OS X 10_15_7) AppleWebKit/537.36 (KHTML, like Gecko) Chrome/133.0.0.0 Safari/537.36" version="25.0.1">
  <diagram name="PÃ¡gina-1" id="fZ65efRSveM4LpCjEf5x">
    <mxGraphModel dx="844" dy="539" grid="1" gridSize="10" guides="1" tooltips="1" connect="1" arrows="1" fold="1" page="1" pageScale="1" pageWidth="827" pageHeight="1169" math="0" shadow="0">
      <root>
        <mxCell id="0" />
        <mxCell id="1" parent="0" />
        <mxCell id="Yj8C3RyAO6aa36QdA-4b-3" value="" style="edgeStyle=orthogonalEdgeStyle;rounded=0;orthogonalLoop=1;jettySize=auto;html=1;" edge="1" parent="1" source="Yj8C3RyAO6aa36QdA-4b-1" target="Yj8C3RyAO6aa36QdA-4b-2">
          <mxGeometry relative="1" as="geometry" />
        </mxCell>
        <mxCell id="Yj8C3RyAO6aa36QdA-4b-1" value="User initiates transaction&lt;div&gt;(e.g., sending ETH)&lt;/div&gt;" style="rounded=1;whiteSpace=wrap;html=1;" vertex="1" parent="1">
          <mxGeometry x="120" y="190" width="120" height="60" as="geometry" />
        </mxCell>
        <mxCell id="Yj8C3RyAO6aa36QdA-4b-5" value="" style="edgeStyle=orthogonalEdgeStyle;rounded=0;orthogonalLoop=1;jettySize=auto;html=1;" edge="1" parent="1" source="Yj8C3RyAO6aa36QdA-4b-2" target="Yj8C3RyAO6aa36QdA-4b-4">
          <mxGeometry relative="1" as="geometry" />
        </mxCell>
        <mxCell id="Yj8C3RyAO6aa36QdA-4b-2" value="Transaction creation and digital signature" style="rounded=1;whiteSpace=wrap;html=1;" vertex="1" parent="1">
          <mxGeometry x="320" y="190" width="120" height="60" as="geometry" />
        </mxCell>
        <mxCell id="Yj8C3RyAO6aa36QdA-4b-7" value="" style="edgeStyle=orthogonalEdgeStyle;rounded=0;orthogonalLoop=1;jettySize=auto;html=1;" edge="1" parent="1" source="Yj8C3RyAO6aa36QdA-4b-4" target="Yj8C3RyAO6aa36QdA-4b-6">
          <mxGeometry relative="1" as="geometry" />
        </mxCell>
        <mxCell id="Yj8C3RyAO6aa36QdA-4b-4" value="Transaction is broadcast to the network" style="rounded=1;whiteSpace=wrap;html=1;" vertex="1" parent="1">
          <mxGeometry x="520" y="190" width="120" height="60" as="geometry" />
        </mxCell>
        <mxCell id="Yj8C3RyAO6aa36QdA-4b-9" value="" style="edgeStyle=orthogonalEdgeStyle;rounded=0;orthogonalLoop=1;jettySize=auto;html=1;" edge="1" parent="1" source="Yj8C3RyAO6aa36QdA-4b-6" target="Yj8C3RyAO6aa36QdA-4b-8">
          <mxGeometry relative="1" as="geometry" />
        </mxCell>
        <mxCell id="Yj8C3RyAO6aa36QdA-4b-6" value="Transaction enters mempool (pending transactions)" style="rounded=1;whiteSpace=wrap;html=1;" vertex="1" parent="1">
          <mxGeometry x="520" y="320" width="120" height="60" as="geometry" />
        </mxCell>
        <mxCell id="Yj8C3RyAO6aa36QdA-4b-11" value="" style="edgeStyle=orthogonalEdgeStyle;rounded=0;orthogonalLoop=1;jettySize=auto;html=1;" edge="1" parent="1" source="Yj8C3RyAO6aa36QdA-4b-8" target="Yj8C3RyAO6aa36QdA-4b-10">
          <mxGeometry relative="1" as="geometry" />
        </mxCell>
        <mxCell id="Yj8C3RyAO6aa36QdA-4b-8" value="Transaction validation by network nodes" style="rounded=1;whiteSpace=wrap;html=1;" vertex="1" parent="1">
          <mxGeometry x="320" y="320" width="120" height="60" as="geometry" />
        </mxCell>
        <mxCell id="Yj8C3RyAO6aa36QdA-4b-13" value="" style="edgeStyle=orthogonalEdgeStyle;rounded=0;orthogonalLoop=1;jettySize=auto;html=1;" edge="1" parent="1" source="Yj8C3RyAO6aa36QdA-4b-10" target="Yj8C3RyAO6aa36QdA-4b-12">
          <mxGeometry relative="1" as="geometry" />
        </mxCell>
        <mxCell id="Yj8C3RyAO6aa36QdA-4b-10" value="Block assembly" style="rounded=1;whiteSpace=wrap;html=1;" vertex="1" parent="1">
          <mxGeometry x="120" y="320" width="120" height="60" as="geometry" />
        </mxCell>
        <mxCell id="Yj8C3RyAO6aa36QdA-4b-15" value="" style="edgeStyle=orthogonalEdgeStyle;rounded=0;orthogonalLoop=1;jettySize=auto;html=1;" edge="1" parent="1" source="Yj8C3RyAO6aa36QdA-4b-12" target="Yj8C3RyAO6aa36QdA-4b-14">
          <mxGeometry relative="1" as="geometry" />
        </mxCell>
        <mxCell id="Yj8C3RyAO6aa36QdA-4b-12" value="EVM execution (if applicable)" style="rounded=1;whiteSpace=wrap;html=1;" vertex="1" parent="1">
          <mxGeometry x="120" y="440" width="120" height="60" as="geometry" />
        </mxCell>
        <mxCell id="Yj8C3RyAO6aa36QdA-4b-17" value="" style="edgeStyle=orthogonalEdgeStyle;rounded=0;orthogonalLoop=1;jettySize=auto;html=1;" edge="1" parent="1" source="Yj8C3RyAO6aa36QdA-4b-14" target="Yj8C3RyAO6aa36QdA-4b-16">
          <mxGeometry relative="1" as="geometry" />
        </mxCell>
        <mxCell id="Yj8C3RyAO6aa36QdA-4b-14" value="Consensus mechanism" style="rounded=1;whiteSpace=wrap;html=1;" vertex="1" parent="1">
          <mxGeometry x="320" y="440" width="120" height="60" as="geometry" />
        </mxCell>
        <mxCell id="Yj8C3RyAO6aa36QdA-4b-21" value="" style="edgeStyle=orthogonalEdgeStyle;rounded=0;orthogonalLoop=1;jettySize=auto;html=1;" edge="1" parent="1" source="Yj8C3RyAO6aa36QdA-4b-16" target="Yj8C3RyAO6aa36QdA-4b-18">
          <mxGeometry relative="1" as="geometry" />
        </mxCell>
        <mxCell id="Yj8C3RyAO6aa36QdA-4b-16" value="Block propagation" style="rounded=1;whiteSpace=wrap;html=1;" vertex="1" parent="1">
          <mxGeometry x="520" y="440" width="120" height="60" as="geometry" />
        </mxCell>
        <mxCell id="Yj8C3RyAO6aa36QdA-4b-20" value="" style="edgeStyle=orthogonalEdgeStyle;rounded=0;orthogonalLoop=1;jettySize=auto;html=1;" edge="1" parent="1" source="Yj8C3RyAO6aa36QdA-4b-18" target="Yj8C3RyAO6aa36QdA-4b-19">
          <mxGeometry relative="1" as="geometry" />
        </mxCell>
        <mxCell id="Yj8C3RyAO6aa36QdA-4b-18" value="Block appended to the blockchain (state updated)" style="rounded=1;whiteSpace=wrap;html=1;" vertex="1" parent="1">
          <mxGeometry x="520" y="560" width="120" height="60" as="geometry" />
        </mxCell>
        <mxCell id="Yj8C3RyAO6aa36QdA-4b-19" value="Transaction confirmation" style="rounded=1;whiteSpace=wrap;html=1;" vertex="1" parent="1">
          <mxGeometry x="320" y="560" width="120" height="60" as="geometry" />
        </mxCell>
      </root>
    </mxGraphModel>
  </diagram>
</mxfile>
